HIERARCHY
ROOT Hips
{
 OFFSET 0.000000 0.000000 0.000000
 CHANNELS 6 Xposition Yposition Zposition Yrotation Xrotation Zrotation
 JOINT Chest
 {
  OFFSET 0.000000 9.857222 0.000240
  CHANNELS 3 Yrotation Xrotation Zrotation
  JOINT Chest2
  {
   OFFSET 0.000000 10.876940 -0.000436
   CHANNELS 3 Yrotation Xrotation Zrotation
   JOINT Chest3
   {
    OFFSET 0.000000 9.827798 0.000000
    CHANNELS 3 Yrotation Xrotation Zrotation
    JOINT Chest4
    {
     OFFSET 0.000000 9.827798 0.000000
     CHANNELS 3 Yrotation Xrotation Zrotation
     JOINT Neck
     {
      OFFSET 0.000000 13.831992 0.000000
      CHANNELS 3 Yrotation Xrotation Zrotation
      JOINT Head
      {
       OFFSET 0.000000 9.147643 -0.001036
       CHANNELS 3 Yrotation Xrotation Zrotation
       End Site
       {
        OFFSET 0.000000 17.515799 -0.000541
       }
      }
     }
     JOINT RightCollar
     {
      OFFSET -3.001579 7.717577 0.000000
      CHANNELS 3 Yrotation Xrotation Zrotation
      JOINT RightShoulder
      {
       OFFSET -14.002642 0.000000 0.000000
       CHANNELS 3 Yrotation Xrotation Zrotation
       JOINT RightElbow
       {
        OFFSET -30.053852 0.000000 0.000000
        CHANNELS 3 Yrotation Xrotation Zrotation
        JOINT RightWrist
        {
         OFFSET -24.564923 0.000000 -0.000000
         CHANNELS 3 Yrotation Xrotation Zrotation
         End Site
         {
          OFFSET -18.334355 0.000000 0.000000
         }
        }
       }
      }
     }
     JOINT LeftCollar
     {
      OFFSET 3.001579 7.717577 0.000000
      CHANNELS 3 Yrotation Xrotation Zrotation
      JOINT LeftShoulder
      {
       OFFSET 14.002642 0.000000 0.000000
       CHANNELS 3 Yrotation Xrotation Zrotation
       JOINT LeftElbow
       {
        OFFSET 30.053852 0.000000 0.000000
        CHANNELS 3 Yrotation Xrotation Zrotation
        JOINT LeftWrist
        {
         OFFSET 24.564923 0.000000 -0.000000
         CHANNELS 3 Yrotation Xrotation Zrotation
         End Site
         {
          OFFSET 18.334355 0.000000 0.000000
         }
        }
       }
      }
     }
    }
   }
  }
 }
 JOINT RightHip
 {
  OFFSET -8.003235 -0.001175 -0.000120
  CHANNELS 3 Yrotation Xrotation Zrotation
  JOINT RightKnee
  {
   OFFSET 0.000000 -41.759727 0.000113
   CHANNELS 3 Yrotation Xrotation Zrotation
   JOINT RightAnkle
   {
    OFFSET 0.000000 -40.728748 0.000159
    CHANNELS 3 Yrotation Xrotation Zrotation
    JOINT RightToe
    {
     OFFSET 0.000000 -6.515296 14.732841
     CHANNELS 3 Yrotation Xrotation Zrotation
     End Site
     {
      OFFSET 0.000000 -1.502839 6.412115
     }
    }
   }
  }
 }
 JOINT LeftHip
 {
  OFFSET 8.003235 -0.001175 -0.000120
  CHANNELS 3 Yrotation Xrotation Zrotation
  JOINT LeftKnee
  {
   OFFSET 0.000000 -41.759727 0.000113
   CHANNELS 3 Yrotation Xrotation Zrotation
   JOINT LeftAnkle
   {
    OFFSET 0.000000 -40.728748 0.000159
    CHANNELS 3 Yrotation Xrotation Zrotation
    JOINT LeftToe
    {
     OFFSET 0.000000 -6.515296 14.732841
     CHANNELS 3 Yrotation Xrotation Zrotation
     End Site
     {
      OFFSET 0.000000 -1.502839 6.412115
     }
    }
   }
  }
 }
}
MOTION
Frames: 8
Frame Time: 0.016667
9.426095 90.814721 20.566395 -35.835437 76.231690 -9.897367 2.391181 -2.231168 -3.018852 0.629719 -0.526084 -0.746102 0.629719 -0.526084 -0.746102 0.471644 -0.395333 -0.559031 11.432113 42.592499 7.257581 20.683774 42.388783 13.160660 50.501434 65.207176 44.043552 74.943455 15.777213 -31.653314 7.851410 -14.593224 -14.571037 -0.372958 4.982981 -12.309239 -40.051655 62.939550 -31.714962 -43.105064 18.882372 37.399104 -24.599946 -4.924765 5.146546 4.359189 1.480154 14.779967 -54.890819 -82.354293 62.694409 0.727977 11.178658 -6.636237 0.069377 0.963447 0.194023 1.140007 -1.013787 0.203401 -17.826712 -74.382247 21.770961 4.816821 -1.230127 0.816349 0.822993 -1.278080 -4.387482 0.007264 0.541403 0.365545
9.200680 90.796455 20.458122 -34.231491 73.738363 -8.442472 2.534889 -2.467965 -2.800630 0.737319 -0.666634 -0.710104 0.737319 -0.666634 -0.710104 0.552209 -0.500834 -0.531769 11.411652 42.566782 7.403361 20.638530 42.326734 13.413975 51.225186 65.490760 45.487551 75.564787 15.563643 -30.476195 7.680116 -14.247379 -14.086960 -0.408649 4.949111 -12.218920 -41.415573 62.994065 -33.156847 -43.864335 19.409663 36.143150 -24.515763 -4.561292 5.018232 4.213987 1.575384 15.054937 -41.594404 -80.691183 49.448668 0.961248 11.150905 -6.816384 0.283901 0.870598 0.543388 0.735779 -0.878050 0.012678 -16.135331 -71.508721 20.191228 4.975454 -1.871727 0.667577 0.737291 -1.197162 -4.697356 0.054575 0.631520 0.455251
8.986798 90.769963 20.391593 -32.751146 71.092360 -7.066022 2.672636 -2.618579 -2.661770 0.853634 -0.791614 -0.686057 0.853634 -0.791614 -0.686057 0.639328 -0.594671 -0.513430 11.378165 42.518387 7.557778 20.564136 42.222743 13.676465 51.925761 65.759587 46.980987 76.095203 15.320549 -29.390378 7.586029 -14.052802 -13.624882 -0.466887 4.865734 -12.057125 -43.108756 63.154459 -34.825735 -44.470115 19.776514 35.105255 -24.435819 -4.149806 4.937955 4.164626 1.658661 15.358507 -32.544857 -78.501770 40.241133 1.246599 11.163529 -6.867268 0.711988 0.613104 0.893376 0.187700 -0.648974 -0.207511 -15.162264 -68.316117 19.154245 5.420117 -2.696766 0.535605 0.581316 -1.026978 -4.986665 0.088304 0.686417 0.523983
8.829533 90.734425 20.418502 -31.359827 68.304637 -5.809146 2.722442 -2.608056 -2.489321 0.943024 -0.865662 -0.652312 0.943024 -0.865662 -0.652312 0.706331 -0.650255 -0.487890 11.262956 42.438172 7.581597 20.336720 42.076330 13.696850 52.462853 65.869701 48.188442 76.366576 15.133534 -28.408196 7.622136 -14.123388 -13.161262 -0.576660 4.758163 -11.831007 -44.999053 63.274902 -36.736472 -44.981801 19.904052 34.321543 -24.314155 -3.605907 4.846056 4.187117 1.623488 15.588957 -26.778218 -75.879281 34.034937 1.386881 11.160303 -6.722609 1.356216 0.196888 1.155498 -0.368930 -0.334525 -0.423218 -13.368572 -64.970724 17.184810 5.637561 -3.781034 0.426160 0.259203 -0.720288 -5.178752 0.093094 0.698858 0.543228
8.748311 90.669363 20.567109 -31.332168 65.203962 -5.696333 3.261396 -2.251184 -2.451337 1.038018 -0.878643 -0.621486 1.038018 -0.878643 -0.621486 0.777606 -0.660041 -0.464615 11.046258 42.283233 7.514946 19.910851 41.804723 13.536358 51.896724 65.818916 48.311046 76.778552 14.924944 -27.364905 7.712186 -14.170322 -12.644104 -0.701193 4.643721 -11.581004 -46.361638 63.121062 -38.030608 -45.513453 20.085739 33.565117 -24.273391 -3.288054 4.781662 4.281588 1.553231 15.620232 -22.529701 -72.709680 29.650380 1.424198 10.934945 -6.555094 2.089529 -0.095008 1.342722 -0.754208 -0.083896 -0.584562 -9.821212 -61.369941 14.113930 5.438805 -4.952305 0.287822 -0.839447 -0.780126 -5.680902 0.755408 0.935514 0.816513
8.759520 90.665647 20.786865 -31.203600 62.388065 -5.453700 3.644151 -2.192279 -2.458413 1.102598 -0.847719 -0.579229 1.102598 -0.847719 -0.579229 0.826131 -0.636837 -0.432886 10.759679 42.072020 7.317908 19.350671 41.443895 13.130826 50.656841 65.628124 47.564092 77.266338 14.593044 -26.280483 7.857231 -13.977079 -11.942820 -0.750542 4.570095 -11.375879 -47.270450 62.750129 -38.990304 -46.092992 20.179900 32.815792 -24.378445 -3.082001 4.626743 4.401670 1.397390 15.596104 -20.385328 -69.535422 27.265805 1.589247 10.465516 -6.501164 2.579423 -0.104640 1.496982 -0.879249 0.006833 -0.642451 -5.583408 -58.195977 10.246929 4.595147 -6.117895 0.257165 -1.482956 -0.464425 -5.709178 0.805710 0.899573 0.778470
8.804541 90.671674 21.058145 -31.109676 59.570533 -5.349054 4.056957 -2.028944 -2.424217 1.193679 -0.741420 -0.548897 1.193679 -0.741420 -0.548897 0.894582 -0.557140 -0.410221 10.422509 41.690269 7.089080 18.667807 40.772374 12.631518 48.772887 65.283807 46.236453 77.756178 14.124365 -25.437284 8.094758 -13.550030 -11.163310 -0.697165 4.520429 -11.232359 -47.763328 62.441089 -39.302247 -46.892562 19.835436 32.259325 -24.543496 -2.804699 4.330029 4.499555 1.326075 15.563842 -19.515115 -66.150068 26.084400 2.124416 9.899645 -6.402484 2.630697 -0.007845 1.526428 -0.716754 0.044739 -0.572409 -1.181488 -55.087555 6.419313 3.008346 -7.017676 0.326300 -1.823244 -0.241553 -5.599124 0.708002 0.846231 0.643682
8.800951 90.681896 21.340399 -30.489658 56.752019 -5.142763 4.319743 -1.798144 -2.151536 1.357136 -0.620211 -0.546549 1.357136 -0.620211 -0.546549 1.017288 -0.466375 -0.408533 10.073342 41.221682 6.970069 17.950440 39.929614 12.316749 46.826802 64.885210 45.207524 78.180958 13.595403 -24.858992 8.408074 -13.017547 -10.431093 -0.646490 4.468701 -11.042639 -48.087000 62.249644 -38.991817 -48.011719 19.095022 31.710808 -24.710165 -2.260756 3.863746 4.645555 1.512150 15.450238 -20.285140 -62.383941 26.232444 3.422700 9.326736 -6.247242 2.509628 -0.025127 1.588604 -0.694002 0.126683 -0.547844 1.174906 -52.012082 4.587948 1.722719 -7.544164 0.237568 -2.152971 -0.068194 -5.483977 0.755459 0.707703 0.564308
